<svg xmlns="http://www.w3.org/2000/svg" viewBox="0 0 120 120" fill="none" stroke="#b22222" stroke-width="2">
  <defs>
    <linearGradient id="bodyGrad" x1="0" y1="0" x2="0" y2="1">
      <stop offset="0%" stop-color="#fff5f5"/>
      <stop offset="100%" stop-color="#ffe0e0"/>
    </linearGradient>
  </defs>
  <path d="M15 60c5-25 25-40 45-42 20-2 40 8 40 22 0 15-15 20-25 20 15 0 25 10 25 22 0 14-15 20-30 18-20-2-35-10-45-25 5 15 20 25 35 28 20 4 40-4 45-18 5-14-5-25-15-30 10-3 20-10 18-20-2-14-18-22-38-22-25 0-45 20-55 45z" fill="url(#bodyGrad)"/>
  <path d="M95 40l8-6 7 5-5 8 5 8-7 5-8-5-5-8z" fill="#fff"/>
  <circle cx="103" cy="38" r="2" fill="#b22222"/>
  <path d="M100 34l4-8M106 34l4-8" stroke="#b22222"/>
  <path d="M100 50c8 0 12 3 16 0M98 46c-6 3-12 3-16 0" stroke="#b22222"/>
</svg>
